<svg width="1024" height="1024" viewBox="0 0 1024 1024" xmlns="http://www.w3.org/2000/svg">
  <defs>
    <linearGradient id="tile" x1="122" y1="120" x2="900" y2="900" gradientUnits="userSpaceOnUse">
      <stop offset="0" stop-color="#3838c8"/>
      <stop offset=".52" stop-color="#24249b"/>
      <stop offset="1" stop-color="#14164d"/>
    </linearGradient>
    <linearGradient id="cover" x1="260" y1="190" x2="756" y2="780" gradientUnits="userSpaceOnUse">
      <stop offset="0" stop-color="#4b5df6"/>
      <stop offset=".58" stop-color="#3033be"/>
      <stop offset="1" stop-color="#1c1b78"/>
    </linearGradient>
    <linearGradient id="warm" x1="650" y1="200" x2="828" y2="740" gradientUnits="userSpaceOnUse">
      <stop offset="0" stop-color="#ffe287"/>
      <stop offset=".44" stop-color="#ff9d4d"/>
      <stop offset="1" stop-color="#ef3f99"/>
    </linearGradient>
    <linearGradient id="badge" x1="160" y1="650" x2="344" y2="842" gradientUnits="userSpaceOnUse">
      <stop offset="0" stop-color="#566bff"/>
      <stop offset=".6" stop-color="#3032bd"/>
      <stop offset="1" stop-color="#1b1a75"/>
    </linearGradient>
    <filter id="shadow" x="-18%" y="-18%" width="136%" height="136%">
      <feDropShadow dx="0" dy="22" stdDeviation="24" flood-color="#09092c" flood-opacity=".48"/>
    </filter>
  </defs>
  <rect x="72" y="72" width="880" height="880" rx="206" fill="url(#tile)"/>
  <g filter="url(#shadow)">
    <rect x="288" y="224" width="506" height="550" rx="72" fill="#3c2ec5" opacity=".6"/>
    <rect x="252" y="186" width="506" height="566" rx="74" fill="url(#cover)"/>
    <path d="M624 186h134v566H624c70-72 70-140 0-204 58-64 58-128 0-194Z" fill="url(#warm)"/>
    <rect x="668" y="314" width="110" height="26" rx="13" fill="#fff1bc" opacity=".72"/>
    <rect x="668" y="368" width="106" height="26" rx="13" fill="#fff1bc" opacity=".58"/>
    <rect x="668" y="422" width="92" height="26" rx="13" fill="#fff1bc" opacity=".48"/>
    <g fill="none" stroke="#dfe6ff" stroke-linecap="round" stroke-linejoin="round">
      <circle cx="442" cy="522" r="124" stroke-width="24" opacity=".78"/>
      <path d="M340 526 530 416v220Z" stroke-width="24" opacity=".86"/>
      <circle cx="442" cy="522" r="42" stroke-width="22" opacity=".78"/>
      <circle cx="394" cy="610" r="20" stroke-width="18" opacity=".82"/>
      <circle cx="442" cy="522" r="9" fill="#dfe6ff" stroke="none"/>
    </g>
  </g>
  <g filter="url(#shadow)">
    <rect x="146" y="644" width="188" height="188" rx="46" fill="url(#badge)"/>
    <path d="M176 784 226 666h32l52 118h-38l-10-26h-42l-10 26Z" fill="#ffffff"/>
    <path d="M230 730h22l-11-32Z" fill="#2825a8"/>
  </g>
</svg>
