<svg width="1024" height="1024" viewBox="0 0 1024 1024" xmlns="http://www.w3.org/2000/svg">
  <defs>
    <linearGradient id="bg" x1="116" y1="140" x2="880" y2="880" gradientUnits="userSpaceOnUse">
      <stop offset="0" stop-color="#111319"/>
      <stop offset=".58" stop-color="#1f2540"/>
      <stop offset="1" stop-color="#806a37"/>
    </linearGradient>
    <linearGradient id="gold" x1="334" y1="270" x2="690" y2="780" gradientUnits="userSpaceOnUse">
      <stop offset="0" stop-color="#fff0bd"/>
      <stop offset=".48" stop-color="#d8b76e"/>
      <stop offset="1" stop-color="#75541e"/>
    </linearGradient>
    <filter id="shadow" x="-20%" y="-20%" width="140%" height="140%">
      <feDropShadow dx="0" dy="24" stdDeviation="28" flood-color="#000000" flood-opacity=".5"/>
    </filter>
  </defs>
  <rect x="72" y="72" width="880" height="880" rx="210" fill="url(#bg)"/>
  <circle cx="512" cy="470" r="306" fill="none" stroke="#f3ead9" stroke-width="16" opacity=".18"/>
  <path d="M256 336h512M302 246l420 420M722 246 302 666" stroke="#f3ead9" stroke-width="10" stroke-linecap="round" opacity=".16"/>
  <g filter="url(#shadow)">
    <path d="M312 612c64-28 132-28 204 0 72-28 140-28 204 0v176c-64-28-132-28-204 0-72-28-140-28-204 0Z" fill="#0f1117" stroke="#f7f2e8" stroke-width="18" stroke-linejoin="round"/>
    <path d="M516 612v176" stroke="#f7f2e8" stroke-width="12" stroke-linecap="round"/>
    <path d="M370 662c38-10 76-8 114 6M548 668c38-14 76-16 114-6" stroke="#f7f2e8" stroke-width="10" stroke-linecap="round" opacity=".65"/>
  </g>
  <g filter="url(#shadow)">
    <path d="M384 394h256l-44 196H428Z" fill="url(#gold)" stroke="#fff3ce" stroke-width="18" stroke-linejoin="round"/>
    <path d="M414 394c0-74 44-124 98-124s98 50 98 124" fill="none" stroke="#fff3ce" stroke-width="18" stroke-linecap="round"/>
    <path d="M430 438h164l-26 112H456Z" fill="#16181d" opacity=".32"/>
    <path d="M512 286v286" stroke="#fff7d8" stroke-width="8" stroke-linecap="round" opacity=".7"/>
  </g>
</svg>
