<svg width="1024" height="1024" viewBox="0 0 1024 1024" xmlns="http://www.w3.org/2000/svg">
  <defs>
    <linearGradient id="bg" x1="88" y1="120" x2="912" y2="888" gradientUnits="userSpaceOnUse">
      <stop offset="0" stop-color="#101214"/>
      <stop offset=".45" stop-color="#20242c"/>
      <stop offset="1" stop-color="#5e6ad2"/>
    </linearGradient>
    <linearGradient id="a" x1="320" y1="270" x2="702" y2="748" gradientUnits="userSpaceOnUse">
      <stop offset="0" stop-color="#fbf7ec"/>
      <stop offset=".48" stop-color="#d6c38f"/>
      <stop offset="1" stop-color="#8b95f5"/>
    </linearGradient>
    <filter id="shadow" x="-20%" y="-20%" width="140%" height="140%">
      <feDropShadow dx="0" dy="22" stdDeviation="26" flood-color="#000000" flood-opacity=".48"/>
    </filter>
  </defs>
  <rect x="72" y="72" width="880" height="880" rx="210" fill="url(#bg)"/>
  <path d="M166 662c130 92 278 130 444 114 102-10 184-42 248-96" fill="none" stroke="#ffffff" stroke-width="22" stroke-linecap="round" opacity=".09"/>
  <g fill="none" stroke="#f8f4eb" stroke-linecap="round" stroke-linejoin="round" opacity=".28">
    <circle cx="512" cy="512" r="300" stroke-width="14"/>
    <circle cx="512" cy="512" r="214" stroke-width="8"/>
    <path d="M512 212v600M212 512h600M300 300l424 424M724 300 300 724" stroke-width="8"/>
  </g>
  <g filter="url(#shadow)">
    <path d="M282 758 466 280h92l184 478h-94l-38-106H414l-38 106Z" fill="url(#a)"/>
    <path d="M444 570h136l-68-190Z" fill="#15171c"/>
    <path d="M402 782c70-34 144-34 222 0 44-20 88-28 132-22v-82c-46-6-90 2-132 22-78-34-152-34-222 0Z" fill="#0f1117" stroke="#f8f4eb" stroke-width="16" stroke-linejoin="round"/>
  </g>
  <g fill="#f8f4eb">
    <circle cx="746" cy="302" r="28"/>
    <circle cx="796" cy="370" r="18" opacity=".86"/>
    <circle cx="718" cy="384" r="14" opacity=".68"/>
  </g>
</svg>
