<svg width="1024" height="1024" viewBox="0 0 1024 1024" xmlns="http://www.w3.org/2000/svg">
  <defs>
    <radialGradient id="bg" cx="36%" cy="22%" r="86%">
      <stop offset="0" stop-color="#2d3248"/>
      <stop offset=".5" stop-color="#13161d"/>
      <stop offset="1" stop-color="#090a0c"/>
    </radialGradient>
    <linearGradient id="page" x1="308" y1="280" x2="716" y2="788" gradientUnits="userSpaceOnUse">
      <stop offset="0" stop-color="#fff8e7"/>
      <stop offset=".55" stop-color="#d5bd7a"/>
      <stop offset="1" stop-color="#8b95f5"/>
    </linearGradient>
    <filter id="shadow" x="-20%" y="-20%" width="140%" height="140%">
      <feDropShadow dx="0" dy="24" stdDeviation="30" flood-color="#000000" flood-opacity=".55"/>
    </filter>
  </defs>
  <rect x="72" y="72" width="880" height="880" rx="210" fill="url(#bg)"/>
  <g fill="none" stroke="#f8f3e7" stroke-linecap="round" stroke-linejoin="round" opacity=".5">
    <ellipse cx="512" cy="476" rx="320" ry="132" stroke-width="16" transform="rotate(-18 512 476)"/>
    <ellipse cx="512" cy="476" rx="320" ry="132" stroke-width="10" transform="rotate(42 512 476)" opacity=".5"/>
  </g>
  <g filter="url(#shadow)">
    <path d="M344 268h252l104 104v384H344Z" fill="url(#page)" stroke="#fff5d6" stroke-width="18" stroke-linejoin="round"/>
    <path d="M596 268v104h104" fill="#786533" opacity=".36"/>
    <path d="M414 448h196M414 518h196M414 588h144" stroke="#16181d" stroke-width="22" stroke-linecap="round" opacity=".55"/>
    <path d="M344 756c68-30 136-30 204 0 68-30 136-30 204 0v72c-68-30-136-30-204 0-68-30-136-30-204 0Z" fill="#0e1015" stroke="#f8f3e7" stroke-width="16" stroke-linejoin="round"/>
    <path d="M548 756v72" stroke="#f8f3e7" stroke-width="10" stroke-linecap="round"/>
  </g>
  <g fill="#f8f3e7">
    <circle cx="242" cy="404" r="28"/>
    <circle cx="784" cy="574" r="28"/>
    <circle cx="690" cy="256" r="18" opacity=".78"/>
  </g>
</svg>
