<svg width="1024" height="1024" viewBox="0 0 1024 1024" xmlns="http://www.w3.org/2000/svg">
  <defs>
    <linearGradient id="bg" x1="102" y1="128" x2="910" y2="892" gradientUnits="userSpaceOnUse">
      <stop offset="0" stop-color="#0e1012"/>
      <stop offset=".48" stop-color="#1d2128"/>
      <stop offset="1" stop-color="#5862ca"/>
    </linearGradient>
    <linearGradient id="a" x1="302" y1="250" x2="720" y2="790" gradientUnits="userSpaceOnUse">
      <stop offset="0" stop-color="#fff8e2"/>
      <stop offset=".48" stop-color="#d6bd76"/>
      <stop offset="1" stop-color="#9099f6"/>
    </linearGradient>
    <filter id="shadow" x="-20%" y="-20%" width="140%" height="140%">
      <feDropShadow dx="0" dy="22" stdDeviation="26" flood-color="#000000" flood-opacity=".5"/>
    </filter>
  </defs>
  <rect x="72" y="72" width="880" height="880" rx="210" fill="url(#bg)"/>
  <g fill="none" stroke="#f8f4eb" stroke-linecap="round" stroke-linejoin="round">
    <circle cx="512" cy="492" r="292" stroke-width="16" opacity=".24"/>
    <path d="M288 350h448L512 730Z" stroke-width="14" opacity=".28"/>
    <circle cx="512" cy="448" r="92" stroke-width="10" opacity=".22"/>
    <path d="M512 212v144" stroke-width="10" opacity=".2"/>
  </g>
  <g filter="url(#shadow)">
    <path d="M282 758 466 280h92l184 478h-94l-38-106H414l-38 106Z" fill="url(#a)"/>
    <path d="M444 570h136l-68-190Z" fill="#15171c"/>
    <path d="M402 782c70-34 144-34 222 0 44-20 88-28 132-22v-82c-46-6-90 2-132 22-78-34-152-34-222 0Z" fill="#0f1117" stroke="#f8f4eb" stroke-width="16" stroke-linejoin="round"/>
  </g>
  <g fill="#f8f4eb">
    <circle cx="512" cy="244" r="18" opacity=".86"/>
    <path d="M762 300c5 26 16 38 42 43-26 6-37 17-42 43-6-26-17-37-43-43 26-5 37-17 43-43Z" opacity=".9"/>
  </g>
</svg>
