<svg width="1024" height="1024" viewBox="0 0 1024 1024" xmlns="http://www.w3.org/2000/svg">
  <defs>
    <linearGradient id="bg" x1="96" y1="124" x2="908" y2="892" gradientUnits="userSpaceOnUse">
      <stop offset="0" stop-color="#101214"/>
      <stop offset=".5" stop-color="#20242c"/>
      <stop offset="1" stop-color="#5e6ad2"/>
    </linearGradient>
    <linearGradient id="a" x1="320" y1="248" x2="708" y2="790" gradientUnits="userSpaceOnUse">
      <stop offset="0" stop-color="#fff6d8"/>
      <stop offset=".44" stop-color="#d8bd73"/>
      <stop offset="1" stop-color="#8b95f5"/>
    </linearGradient>
    <filter id="shadow" x="-20%" y="-20%" width="140%" height="140%">
      <feDropShadow dx="0" dy="22" stdDeviation="26" flood-color="#000000" flood-opacity=".5"/>
    </filter>
  </defs>
  <rect x="72" y="72" width="880" height="880" rx="210" fill="url(#bg)"/>
  <path d="M152 676c124 82 264 116 420 102 118-10 208-48 284-110" fill="none" stroke="#ffffff" stroke-width="22" stroke-linecap="round" opacity=".08"/>
  <g fill="none" stroke="#f8f4eb" stroke-linecap="round" stroke-linejoin="round">
    <circle cx="512" cy="490" r="298" stroke-width="16" opacity=".34"/>
    <path d="M512 206 756 628H268Z" stroke-width="14" opacity=".34"/>
    <circle cx="512" cy="490" r="116" stroke-width="10" opacity=".26"/>
  </g>
  <g filter="url(#shadow)">
    <path d="M282 758 466 280h92l184 478h-94l-38-106H414l-38 106Z" fill="url(#a)"/>
    <path d="M444 570h136l-68-190Z" fill="#15171c"/>
    <path d="M402 782c70-34 144-34 222 0 44-20 88-28 132-22v-82c-46-6-90 2-132 22-78-34-152-34-222 0Z" fill="#0f1117" stroke="#f8f4eb" stroke-width="16" stroke-linejoin="round"/>
  </g>
  <g fill="#f8f4eb">
    <path d="M754 290c5 28 16 40 44 46-28 6-39 18-44 46-6-28-17-40-46-46 29-6 40-18 46-46Z"/>
    <circle cx="812" cy="410" r="13" opacity=".7"/>
  </g>
</svg>
